<svg xmlns="http://www.w3.org/2000/svg" width="920" height="518" viewBox="0 0 920 518" role="img" font-family="system-ui, -apple-system, 'Segoe UI', sans-serif">
  <line x1="420.03" y1="72" x2="420.03" y2="488" stroke="#4a4a46" stroke-width="1"/>
  <text x="8" y="30" fill="#ffffff" font-size="20" font-weight="600">Spark readHeavyForPBI</text>
  <text x="8" y="56" fill="#c3c2b7" font-size="14">CUs vs the default writeHeavy profile, median per dataset</text>
  <text x="76" y="113.5" fill="#ffffff" font-size="16" font-weight="600" text-anchor="end">aemo</text>
  <text x="158" y="97.5" fill="#c3c2b7" font-size="13" text-anchor="end">queries</text>
  <rect x="420.03" y="82" width="369.97" height="22" rx="3" fill="#3987e5"/>
  <text x="799" y="98" fill="#ffffff" font-size="15" font-weight="600" text-anchor="start">2.3× cheaper</text>
  <text x="158" y="127.5" fill="#c3c2b7" font-size="13" text-anchor="end">build</text>
  <rect x="420.03" y="112" width="52.11" height="22" rx="3" fill="#3987e5"/>
  <text x="481.14" y="128" fill="#ffffff" font-size="15" font-weight="600" text-anchor="start">−8%</text>
  <text x="76" y="199.5" fill="#ffffff" font-size="16" font-weight="600" text-anchor="end">cms</text>
  <text x="158" y="183.5" fill="#c3c2b7" font-size="13" text-anchor="end">queries</text>
  <rect x="420.03" y="168" width="276.75" height="22" rx="3" fill="#3987e5"/>
  <text x="705.78" y="184" fill="#ffffff" font-size="15" font-weight="600" text-anchor="start">1.8× cheaper</text>
  <text x="158" y="213.5" fill="#c3c2b7" font-size="13" text-anchor="end">build</text>
  <rect x="282.7" y="198" width="137.33" height="22" rx="3" fill="#e66767"/>
  <text x="273.7" y="214" fill="#ffffff" font-size="15" font-weight="600" text-anchor="end">+21%</text>
  <text x="76" y="285.5" fill="#ffffff" font-size="16" font-weight="600" text-anchor="end">nyc</text>
  <text x="158" y="269.5" fill="#c3c2b7" font-size="13" text-anchor="end">queries</text>
  <rect x="420.03" y="254" width="165.94" height="22" rx="3" fill="#3987e5"/>
  <text x="594.97" y="270" fill="#ffffff" font-size="15" font-weight="600" text-anchor="start">1.3× cheaper</text>
  <text x="158" y="299.5" fill="#c3c2b7" font-size="13" text-anchor="end">build</text>
  <rect x="374.24" y="284" width="45.79" height="22" rx="3" fill="#e66767"/>
  <text x="365.24" y="300" fill="#ffffff" font-size="15" font-weight="600" text-anchor="end">+7%</text>
  <text x="76" y="371.5" fill="#ffffff" font-size="16" font-weight="600" text-anchor="end">bts</text>
  <text x="158" y="355.5" fill="#c3c2b7" font-size="13" text-anchor="end">queries</text>
  <rect x="420.03" y="340" width="84.09" height="22" rx="3" fill="#3987e5"/>
  <text x="513.12" y="356" fill="#ffffff" font-size="15" font-weight="600" text-anchor="start">1.2× cheaper</text>
  <text x="158" y="385.5" fill="#c3c2b7" font-size="13" text-anchor="end">build</text>
  <rect x="420.03" y="370" width="95.86" height="22" rx="3" fill="#3987e5"/>
  <text x="524.89" y="386" fill="#ffffff" font-size="15" font-weight="600" text-anchor="start">−15%</text>
  <text x="76" y="457.5" fill="#ffffff" font-size="16" font-weight="600" text-anchor="end">green</text>
  <text x="158" y="441.5" fill="#c3c2b7" font-size="13" text-anchor="end">queries</text>
  <rect x="398.18" y="426" width="21.85" height="22" rx="3" fill="#e66767"/>
  <text x="389.18" y="442" fill="#ffffff" font-size="15" font-weight="600" text-anchor="end">+3%</text>
  <text x="158" y="471.5" fill="#c3c2b7" font-size="13" text-anchor="end">build</text>
  <rect x="242" y="456" width="178.03" height="22" rx="3" fill="#e66767"/>
  <text x="233" y="472" fill="#ffffff" font-size="15" font-weight="600" text-anchor="end">+28%</text>
  <text x="412.03" y="508" fill="#898781" font-size="12.5" text-anchor="end">← readHeavyForPBI costs more</text>
  <text x="428.03" y="508" fill="#898781" font-size="12.5" text-anchor="start">saves →</text>
</svg>
